<mxfile host="65bd71144e">
    <diagram id="zGhOh5kn7ZEdOWR2yeyG" name="Flow Chart">
        <mxGraphModel dx="1857" dy="520" grid="0" gridSize="10" guides="1" tooltips="1" connect="1" arrows="1" fold="1" page="1" pageScale="1" pageWidth="850" pageHeight="1100" math="0" shadow="0">
            <root>
                <mxCell id="0"/>
                <mxCell id="1" parent="0"/>
                <mxCell id="m2JrrXw7eCol7-c0cHP9-5" style="edgeStyle=none;html=1;endSize=1;" parent="1" source="m2JrrXw7eCol7-c0cHP9-1" target="m2JrrXw7eCol7-c0cHP9-4" edge="1">
                    <mxGeometry relative="1" as="geometry"/>
                </mxCell>
                <mxCell id="m2JrrXw7eCol7-c0cHP9-1" value="" style="ellipse;whiteSpace=wrap;html=1;aspect=fixed;" parent="1" vertex="1">
                    <mxGeometry x="216" y="105" width="11" height="11" as="geometry"/>
                </mxCell>
                <mxCell id="m2JrrXw7eCol7-c0cHP9-7" value="" style="edgeStyle=none;html=1;endSize=1;" parent="1" source="m2JrrXw7eCol7-c0cHP9-4" target="m2JrrXw7eCol7-c0cHP9-6" edge="1">
                    <mxGeometry relative="1" as="geometry"/>
                </mxCell>
                <mxCell id="m2JrrXw7eCol7-c0cHP9-4" value="login" style="rounded=1;whiteSpace=wrap;html=1;" parent="1" vertex="1">
                    <mxGeometry x="193" y="132" width="57" height="19" as="geometry"/>
                </mxCell>
                <mxCell id="m2JrrXw7eCol7-c0cHP9-9" value="" style="edgeStyle=none;html=1;endSize=1;" parent="1" source="m2JrrXw7eCol7-c0cHP9-6" target="m2JrrXw7eCol7-c0cHP9-8" edge="1">
                    <mxGeometry relative="1" as="geometry"/>
                </mxCell>
                <mxCell id="m2JrrXw7eCol7-c0cHP9-6" value="input data" style="rounded=1;whiteSpace=wrap;html=1;" parent="1" vertex="1">
                    <mxGeometry x="193" y="173" width="57" height="19" as="geometry"/>
                </mxCell>
                <mxCell id="m2JrrXw7eCol7-c0cHP9-11" value="" style="edgeStyle=none;html=1;endSize=1;" parent="1" source="m2JrrXw7eCol7-c0cHP9-8" target="m2JrrXw7eCol7-c0cHP9-10" edge="1">
                    <mxGeometry relative="1" as="geometry"/>
                </mxCell>
                <mxCell id="m2JrrXw7eCol7-c0cHP9-17" value="" style="edgeStyle=none;html=1;endSize=1;" parent="1" source="m2JrrXw7eCol7-c0cHP9-8" target="m2JrrXw7eCol7-c0cHP9-16" edge="1">
                    <mxGeometry relative="1" as="geometry"/>
                </mxCell>
                <mxCell id="m2JrrXw7eCol7-c0cHP9-18" value="1" style="edgeLabel;html=1;align=center;verticalAlign=middle;resizable=0;points=[];" parent="m2JrrXw7eCol7-c0cHP9-17" vertex="1" connectable="0">
                    <mxGeometry x="0.2103" y="-1" relative="1" as="geometry">
                        <mxPoint x="-6" y="-9" as="offset"/>
                    </mxGeometry>
                </mxCell>
                <mxCell id="m2JrrXw7eCol7-c0cHP9-8" value="check" style="rhombus;whiteSpace=wrap;html=1;rounded=1;" parent="1" vertex="1">
                    <mxGeometry x="193" y="216" width="52" height="52" as="geometry"/>
                </mxCell>
                <mxCell id="m2JrrXw7eCol7-c0cHP9-12" style="edgeStyle=none;html=1;entryX=1;entryY=0.5;entryDx=0;entryDy=0;endSize=1;" parent="1" source="m2JrrXw7eCol7-c0cHP9-10" target="m2JrrXw7eCol7-c0cHP9-6" edge="1">
                    <mxGeometry relative="1" as="geometry"/>
                </mxCell>
                <mxCell id="m2JrrXw7eCol7-c0cHP9-10" value="input invalid" style="whiteSpace=wrap;html=1;rounded=1;" parent="1" vertex="1">
                    <mxGeometry x="291" y="212" width="56" height="30" as="geometry"/>
                </mxCell>
                <mxCell id="m2JrrXw7eCol7-c0cHP9-13" value="0" style="text;html=1;align=center;verticalAlign=middle;resizable=0;points=[];autosize=1;strokeColor=none;fillColor=none;" parent="1" vertex="1">
                    <mxGeometry x="246" y="214" width="25" height="26" as="geometry"/>
                </mxCell>
                <mxCell id="m2JrrXw7eCol7-c0cHP9-20" value="" style="edgeStyle=none;html=1;endSize=1;" parent="1" source="m2JrrXw7eCol7-c0cHP9-16" target="m2JrrXw7eCol7-c0cHP9-19" edge="1">
                    <mxGeometry relative="1" as="geometry"/>
                </mxCell>
                <mxCell id="m2JrrXw7eCol7-c0cHP9-16" value="Home page" style="whiteSpace=wrap;html=1;rounded=1;" parent="1" vertex="1">
                    <mxGeometry x="177" y="302" width="84" height="31" as="geometry"/>
                </mxCell>
                <mxCell id="m2JrrXw7eCol7-c0cHP9-22" value="" style="edgeStyle=none;html=1;endSize=1;" parent="1" source="m2JrrXw7eCol7-c0cHP9-19" target="m2JrrXw7eCol7-c0cHP9-21" edge="1">
                    <mxGeometry relative="1" as="geometry"/>
                </mxCell>
                <mxCell id="m2JrrXw7eCol7-c0cHP9-19" value="Look for project" style="whiteSpace=wrap;html=1;rounded=1;" parent="1" vertex="1">
                    <mxGeometry x="177" y="365" width="84" height="31" as="geometry"/>
                </mxCell>
                <mxCell id="m2JrrXw7eCol7-c0cHP9-24" value="" style="edgeStyle=none;html=1;endSize=1;" parent="1" source="m2JrrXw7eCol7-c0cHP9-21" target="m2JrrXw7eCol7-c0cHP9-23" edge="1">
                    <mxGeometry relative="1" as="geometry"/>
                </mxCell>
                <mxCell id="m2JrrXw7eCol7-c0cHP9-21" value="Click on project" style="whiteSpace=wrap;html=1;rounded=1;" parent="1" vertex="1">
                    <mxGeometry x="177" y="431" width="84" height="31" as="geometry"/>
                </mxCell>
                <mxCell id="m2JrrXw7eCol7-c0cHP9-26" value="" style="edgeStyle=none;html=1;endSize=1;" parent="1" source="m2JrrXw7eCol7-c0cHP9-23" target="m2JrrXw7eCol7-c0cHP9-25" edge="1">
                    <mxGeometry relative="1" as="geometry"/>
                </mxCell>
                <mxCell id="m2JrrXw7eCol7-c0cHP9-23" value="Check project detail" style="whiteSpace=wrap;html=1;rounded=1;" parent="1" vertex="1">
                    <mxGeometry x="177" y="489" width="84" height="31" as="geometry"/>
                </mxCell>
                <mxCell id="m2JrrXw7eCol7-c0cHP9-28" value="" style="edgeStyle=none;html=1;endSize=1;" parent="1" source="m2JrrXw7eCol7-c0cHP9-25" target="m2JrrXw7eCol7-c0cHP9-27" edge="1">
                    <mxGeometry relative="1" as="geometry"/>
                </mxCell>
                <mxCell id="m2JrrXw7eCol7-c0cHP9-25" value="Start to hire" style="whiteSpace=wrap;html=1;rounded=1;" parent="1" vertex="1">
                    <mxGeometry x="177" y="548" width="84" height="31" as="geometry"/>
                </mxCell>
                <mxCell id="m2JrrXw7eCol7-c0cHP9-30" value="" style="edgeStyle=none;html=1;endSize=1;" parent="1" source="m2JrrXw7eCol7-c0cHP9-27" target="m2JrrXw7eCol7-c0cHP9-29" edge="1">
                    <mxGeometry relative="1" as="geometry"/>
                </mxCell>
                <mxCell id="m2JrrXw7eCol7-c0cHP9-27" value="Go to chat page" style="whiteSpace=wrap;html=1;rounded=1;" parent="1" vertex="1">
                    <mxGeometry x="177" y="607" width="84" height="31" as="geometry"/>
                </mxCell>
                <mxCell id="m2JrrXw7eCol7-c0cHP9-32" value="" style="edgeStyle=none;html=1;endSize=1;" parent="1" source="m2JrrXw7eCol7-c0cHP9-29" target="m2JrrXw7eCol7-c0cHP9-31" edge="1">
                    <mxGeometry relative="1" as="geometry"/>
                </mxCell>
                <mxCell id="m2JrrXw7eCol7-c0cHP9-29" value="Go to chat page with fixed message" style="whiteSpace=wrap;html=1;rounded=1;" parent="1" vertex="1">
                    <mxGeometry x="177" y="671" width="85" height="44" as="geometry"/>
                </mxCell>
                <mxCell id="m2JrrXw7eCol7-c0cHP9-41" style="edgeStyle=none;html=1;endSize=1;dashed=1;entryX=0;entryY=0;entryDx=80;entryDy=65;entryPerimeter=0;" parent="1" source="m2JrrXw7eCol7-c0cHP9-31" target="m2JrrXw7eCol7-c0cHP9-40" edge="1">
                    <mxGeometry relative="1" as="geometry">
                        <mxPoint x="307.39991106305797" y="762" as="targetPoint"/>
                    </mxGeometry>
                </mxCell>
                <mxCell id="m2JrrXw7eCol7-c0cHP9-46" value="" style="edgeStyle=orthogonalEdgeStyle;html=1;endSize=1;exitX=1;exitY=0.5;exitDx=0;exitDy=0;" parent="1" source="m2JrrXw7eCol7-c0cHP9-31" target="m2JrrXw7eCol7-c0cHP9-45" edge="1">
                    <mxGeometry relative="1" as="geometry">
                        <Array as="points">
                            <mxPoint x="389" y="762"/>
                            <mxPoint x="389" y="131"/>
                        </Array>
                    </mxGeometry>
                </mxCell>
                <mxCell id="m2JrrXw7eCol7-c0cHP9-31" value="create contract" style="whiteSpace=wrap;html=1;rounded=1;" parent="1" vertex="1">
                    <mxGeometry x="177" y="740" width="85" height="44" as="geometry"/>
                </mxCell>
                <mxCell id="m2JrrXw7eCol7-c0cHP9-40" value="" style="shape=note;whiteSpace=wrap;html=1;backgroundOutline=1;darkOpacity=0.05;" parent="1" vertex="1">
                    <mxGeometry x="18" y="684" width="80" height="100" as="geometry"/>
                </mxCell>
                <mxCell id="m2JrrXw7eCol7-c0cHP9-49" value="Customer" style="swimlane;whiteSpace=wrap;html=1;" parent="1" vertex="1">
                    <mxGeometry x="-12" y="73" width="435" height="1091" as="geometry"/>
                </mxCell>
                <mxCell id="m2JrrXw7eCol7-c0cHP9-70" value="" style="edgeStyle=orthogonalEdgeStyle;html=1;endSize=1;" parent="m2JrrXw7eCol7-c0cHP9-49" source="m2JrrXw7eCol7-c0cHP9-67" target="m2JrrXw7eCol7-c0cHP9-69" edge="1">
                    <mxGeometry relative="1" as="geometry"/>
                </mxCell>
                <mxCell id="m2JrrXw7eCol7-c0cHP9-67" value="Show QR" style="whiteSpace=wrap;html=1;rounded=1;" parent="m2JrrXw7eCol7-c0cHP9-49" vertex="1">
                    <mxGeometry x="185" y="785" width="85" height="44" as="geometry"/>
                </mxCell>
                <mxCell id="m2JrrXw7eCol7-c0cHP9-69" value="scan to transfer money" style="whiteSpace=wrap;html=1;rounded=1;" parent="m2JrrXw7eCol7-c0cHP9-49" vertex="1">
                    <mxGeometry x="185" y="863" width="85" height="44" as="geometry"/>
                </mxCell>
                <mxCell id="m2JrrXw7eCol7-c0cHP9-93" style="edgeStyle=none;html=1;entryX=0;entryY=0.5;entryDx=0;entryDy=0;endSize=1;" parent="m2JrrXw7eCol7-c0cHP9-49" source="m2JrrXw7eCol7-c0cHP9-92" target="m2JrrXw7eCol7-c0cHP9-69" edge="1">
                    <mxGeometry relative="1" as="geometry"/>
                </mxCell>
                <mxCell id="m2JrrXw7eCol7-c0cHP9-92" value="required to transfer again" style="whiteSpace=wrap;html=1;rounded=1;" parent="m2JrrXw7eCol7-c0cHP9-49" vertex="1">
                    <mxGeometry x="34" y="754" width="85" height="44" as="geometry"/>
                </mxCell>
                <mxCell id="m2JrrXw7eCol7-c0cHP9-50" value="Freelance" style="swimlane;whiteSpace=wrap;html=1;" parent="1" vertex="1">
                    <mxGeometry x="536" y="64" width="394" height="741" as="geometry"/>
                </mxCell>
                <mxCell id="m2JrrXw7eCol7-c0cHP9-54" style="edgeStyle=orthogonalEdgeStyle;html=1;endSize=1;" parent="m2JrrXw7eCol7-c0cHP9-50" source="m2JrrXw7eCol7-c0cHP9-45" target="m2JrrXw7eCol7-c0cHP9-52" edge="1">
                    <mxGeometry relative="1" as="geometry"/>
                </mxCell>
                <mxCell id="m2JrrXw7eCol7-c0cHP9-45" value="send to freelance" style="whiteSpace=wrap;html=1;rounded=1;" parent="m2JrrXw7eCol7-c0cHP9-50" vertex="1">
                    <mxGeometry x="93" y="35" width="85" height="44" as="geometry"/>
                </mxCell>
                <mxCell id="m2JrrXw7eCol7-c0cHP9-52" value="accept contract" style="whiteSpace=wrap;html=1;rounded=1;" parent="m2JrrXw7eCol7-c0cHP9-50" vertex="1">
                    <mxGeometry x="93" y="108" width="85" height="44" as="geometry"/>
                </mxCell>
                <mxCell id="m2JrrXw7eCol7-c0cHP9-88" value="" style="edgeStyle=none;html=1;endSize=1;" parent="m2JrrXw7eCol7-c0cHP9-50" source="m2JrrXw7eCol7-c0cHP9-73" target="m2JrrXw7eCol7-c0cHP9-87" edge="1">
                    <mxGeometry relative="1" as="geometry"/>
                </mxCell>
                <mxCell id="m2JrrXw7eCol7-c0cHP9-90" value="0" style="edgeLabel;html=1;align=center;verticalAlign=middle;resizable=0;points=[];" parent="m2JrrXw7eCol7-c0cHP9-88" vertex="1" connectable="0">
                    <mxGeometry x="-0.2096" y="-3" relative="1" as="geometry">
                        <mxPoint as="offset"/>
                    </mxGeometry>
                </mxCell>
                <mxCell id="m2JrrXw7eCol7-c0cHP9-73" value="check if transaction succeeded" style="rhombus;whiteSpace=wrap;html=1;" parent="m2JrrXw7eCol7-c0cHP9-50" vertex="1">
                    <mxGeometry x="134" y="243" width="80" height="80" as="geometry"/>
                </mxCell>
                <mxCell id="m2JrrXw7eCol7-c0cHP9-87" value="transaction fail detected" style="rounded=1;whiteSpace=wrap;html=1;" parent="m2JrrXw7eCol7-c0cHP9-50" vertex="1">
                    <mxGeometry x="114" y="413" width="120" height="60" as="geometry"/>
                </mxCell>
                <mxCell id="m2JrrXw7eCol7-c0cHP9-56" value="" style="edgeStyle=orthogonalEdgeStyle;html=1;endSize=1;entryX=0;entryY=0.5;entryDx=0;entryDy=0;" parent="1" source="m2JrrXw7eCol7-c0cHP9-52" target="m2JrrXw7eCol7-c0cHP9-55" edge="1">
                    <mxGeometry relative="1" as="geometry"/>
                </mxCell>
                <mxCell id="m2JrrXw7eCol7-c0cHP9-57" value="Plaform" style="swimlane;whiteSpace=wrap;html=1;" parent="1" vertex="1">
                    <mxGeometry x="1118" y="64" width="262" height="741" as="geometry"/>
                </mxCell>
                <mxCell id="m2JrrXw7eCol7-c0cHP9-62" value="" style="edgeStyle=orthogonalEdgeStyle;html=1;endSize=1;" parent="m2JrrXw7eCol7-c0cHP9-57" source="m2JrrXw7eCol7-c0cHP9-55" target="m2JrrXw7eCol7-c0cHP9-61" edge="1">
                    <mxGeometry relative="1" as="geometry"/>
                </mxCell>
                <mxCell id="m2JrrXw7eCol7-c0cHP9-55" value="create contract" style="whiteSpace=wrap;html=1;rounded=1;" parent="m2JrrXw7eCol7-c0cHP9-57" vertex="1">
                    <mxGeometry x="94" y="33" width="85" height="44" as="geometry"/>
                </mxCell>
                <mxCell id="m2JrrXw7eCol7-c0cHP9-64" value="" style="edgeStyle=orthogonalEdgeStyle;html=1;endSize=1;" parent="m2JrrXw7eCol7-c0cHP9-57" source="m2JrrXw7eCol7-c0cHP9-61" target="m2JrrXw7eCol7-c0cHP9-63" edge="1">
                    <mxGeometry relative="1" as="geometry"/>
                </mxCell>
                <mxCell id="m2JrrXw7eCol7-c0cHP9-61" value="convert to pdf" style="whiteSpace=wrap;html=1;rounded=1;" parent="m2JrrXw7eCol7-c0cHP9-57" vertex="1">
                    <mxGeometry x="94" y="115" width="85" height="44" as="geometry"/>
                </mxCell>
                <mxCell id="m2JrrXw7eCol7-c0cHP9-63" value="store in db" style="whiteSpace=wrap;html=1;rounded=1;" parent="m2JrrXw7eCol7-c0cHP9-57" vertex="1">
                    <mxGeometry x="94" y="187" width="85" height="44" as="geometry"/>
                </mxCell>
                <mxCell id="m2JrrXw7eCol7-c0cHP9-79" value="" style="edgeStyle=orthogonalEdgeStyle;html=1;endSize=1;" parent="m2JrrXw7eCol7-c0cHP9-57" source="m2JrrXw7eCol7-c0cHP9-76" target="m2JrrXw7eCol7-c0cHP9-78" edge="1">
                    <mxGeometry relative="1" as="geometry"/>
                </mxCell>
                <mxCell id="m2JrrXw7eCol7-c0cHP9-76" value="store transaction" style="rounded=1;whiteSpace=wrap;html=1;" parent="m2JrrXw7eCol7-c0cHP9-57" vertex="1">
                    <mxGeometry x="106" y="254" width="120" height="60" as="geometry"/>
                </mxCell>
                <mxCell id="m2JrrXw7eCol7-c0cHP9-85" value="" style="html=1;endSize=1;" parent="m2JrrXw7eCol7-c0cHP9-57" source="m2JrrXw7eCol7-c0cHP9-78" target="m2JrrXw7eCol7-c0cHP9-84" edge="1">
                    <mxGeometry relative="1" as="geometry"/>
                </mxCell>
                <mxCell id="m2JrrXw7eCol7-c0cHP9-78" value="send noti to freelance to start a job" style="rounded=1;whiteSpace=wrap;html=1;" parent="m2JrrXw7eCol7-c0cHP9-57" vertex="1">
                    <mxGeometry x="106" y="394" width="120" height="60" as="geometry"/>
                </mxCell>
                <mxCell id="m2JrrXw7eCol7-c0cHP9-84" value="end" style="ellipse;whiteSpace=wrap;html=1;rounded=1;" parent="m2JrrXw7eCol7-c0cHP9-57" vertex="1">
                    <mxGeometry x="155" y="524" width="28" height="28" as="geometry"/>
                </mxCell>
                <mxCell id="m2JrrXw7eCol7-c0cHP9-68" value="" style="edgeStyle=orthogonalEdgeStyle;html=1;endSize=1;entryX=1;entryY=0.5;entryDx=0;entryDy=0;" parent="1" source="m2JrrXw7eCol7-c0cHP9-63" target="m2JrrXw7eCol7-c0cHP9-67" edge="1">
                    <mxGeometry relative="1" as="geometry"/>
                </mxCell>
                <mxCell id="m2JrrXw7eCol7-c0cHP9-72" value="" style="edgeStyle=orthogonalEdgeStyle;html=1;endSize=1;entryX=0;entryY=0.5;entryDx=0;entryDy=0;" parent="1" source="m2JrrXw7eCol7-c0cHP9-69" target="m2JrrXw7eCol7-c0cHP9-73" edge="1">
                    <mxGeometry relative="1" as="geometry"/>
                </mxCell>
                <mxCell id="m2JrrXw7eCol7-c0cHP9-77" value="" style="edgeStyle=orthogonalEdgeStyle;html=1;endSize=1;" parent="1" source="m2JrrXw7eCol7-c0cHP9-73" target="m2JrrXw7eCol7-c0cHP9-76" edge="1">
                    <mxGeometry relative="1" as="geometry"/>
                </mxCell>
                <mxCell id="m2JrrXw7eCol7-c0cHP9-89" value="1" style="edgeLabel;html=1;align=center;verticalAlign=middle;resizable=0;points=[];" parent="m2JrrXw7eCol7-c0cHP9-77" vertex="1" connectable="0">
                    <mxGeometry x="-0.6365" y="-1" relative="1" as="geometry">
                        <mxPoint as="offset"/>
                    </mxGeometry>
                </mxCell>
                <mxCell id="m2JrrXw7eCol7-c0cHP9-91" style="edgeStyle=none;html=1;endSize=1;entryX=1;entryY=0.5;entryDx=0;entryDy=0;" parent="1" source="m2JrrXw7eCol7-c0cHP9-87" target="m2JrrXw7eCol7-c0cHP9-92" edge="1">
                    <mxGeometry relative="1" as="geometry">
                        <mxPoint x="209" y="1023" as="targetPoint"/>
                        <Array as="points">
                            <mxPoint x="379" y="824"/>
                        </Array>
                    </mxGeometry>
                </mxCell>
            </root>
        </mxGraphModel>
    </diagram>
    <diagram id="LEcWjXze24pgLoMmSMan" name="Page-1">
        <mxGraphModel dx="1146" dy="599" grid="0" gridSize="10" guides="1" tooltips="1" connect="1" arrows="1" fold="1" page="1" pageScale="1" pageWidth="850" pageHeight="1100" math="0" shadow="0">
            <root>
                <mxCell id="0"/>
                <mxCell id="1" parent="0"/>
                <mxCell id="9" style="edgeStyle=none;html=1;" parent="1" source="2" target="6" edge="1">
                    <mxGeometry relative="1" as="geometry"/>
                </mxCell>
                <mxCell id="10" style="edgeStyle=none;html=1;" parent="1" source="2" target="7" edge="1">
                    <mxGeometry relative="1" as="geometry"/>
                </mxCell>
                <mxCell id="2" value="User" style="swimlane;fontStyle=0;childLayout=stackLayout;horizontal=1;startSize=30;horizontalStack=0;resizeParent=1;resizeParentMax=0;resizeLast=0;collapsible=1;marginBottom=0;whiteSpace=wrap;html=1;" parent="1" vertex="1">
                    <mxGeometry x="110" y="144" width="140" height="150" as="geometry"/>
                </mxCell>
                <mxCell id="28" value="id" style="text;strokeColor=none;fillColor=none;align=left;verticalAlign=middle;spacingLeft=4;spacingRight=4;overflow=hidden;points=[[0,0.5],[1,0.5]];portConstraint=eastwest;rotatable=0;whiteSpace=wrap;html=1;" parent="2" vertex="1">
                    <mxGeometry y="30" width="140" height="30" as="geometry"/>
                </mxCell>
                <mxCell id="3" value="name" style="text;strokeColor=none;fillColor=none;align=left;verticalAlign=middle;spacingLeft=4;spacingRight=4;overflow=hidden;points=[[0,0.5],[1,0.5]];portConstraint=eastwest;rotatable=0;whiteSpace=wrap;html=1;" parent="2" vertex="1">
                    <mxGeometry y="60" width="140" height="30" as="geometry"/>
                </mxCell>
                <mxCell id="5" value="rating" style="text;strokeColor=none;fillColor=none;align=left;verticalAlign=middle;spacingLeft=4;spacingRight=4;overflow=hidden;points=[[0,0.5],[1,0.5]];portConstraint=eastwest;rotatable=0;whiteSpace=wrap;html=1;" parent="2" vertex="1">
                    <mxGeometry y="90" width="140" height="30" as="geometry"/>
                </mxCell>
                <mxCell id="25" value="phone" style="text;strokeColor=none;fillColor=none;align=left;verticalAlign=middle;spacingLeft=4;spacingRight=4;overflow=hidden;points=[[0,0.5],[1,0.5]];portConstraint=eastwest;rotatable=0;whiteSpace=wrap;html=1;" parent="2" vertex="1">
                    <mxGeometry y="120" width="140" height="30" as="geometry"/>
                </mxCell>
                <mxCell id="6" value="Freelance" style="ellipse;whiteSpace=wrap;html=1;" parent="1" vertex="1">
                    <mxGeometry x="43" y="34" width="120" height="80" as="geometry"/>
                </mxCell>
                <mxCell id="7" value="Businesses" style="ellipse;whiteSpace=wrap;html=1;" parent="1" vertex="1">
                    <mxGeometry x="198" y="34" width="120" height="80" as="geometry"/>
                </mxCell>
                <mxCell id="11" value="Type" style="swimlane;fontStyle=0;childLayout=stackLayout;horizontal=1;startSize=30;horizontalStack=0;resizeParent=1;resizeParentMax=0;resizeLast=0;collapsible=1;marginBottom=0;whiteSpace=wrap;html=1;" parent="1" vertex="1">
                    <mxGeometry x="373" y="148" width="140" height="90" as="geometry"/>
                </mxCell>
                <mxCell id="24" value="typeName (FL, Client)" style="text;strokeColor=none;fillColor=none;align=left;verticalAlign=middle;spacingLeft=4;spacingRight=4;overflow=hidden;points=[[0,0.5],[1,0.5]];portConstraint=eastwest;rotatable=0;whiteSpace=wrap;html=1;" parent="11" vertex="1">
                    <mxGeometry y="30" width="140" height="30" as="geometry"/>
                </mxCell>
                <mxCell id="12" value="userid" style="text;strokeColor=none;fillColor=none;align=left;verticalAlign=middle;spacingLeft=4;spacingRight=4;overflow=hidden;points=[[0,0.5],[1,0.5]];portConstraint=eastwest;rotatable=0;whiteSpace=wrap;html=1;" parent="11" vertex="1">
                    <mxGeometry y="60" width="140" height="30" as="geometry"/>
                </mxCell>
                <mxCell id="17" style="edgeStyle=none;html=1;entryX=0;entryY=0.5;entryDx=0;entryDy=0;endArrow=ERoneToMany;endFill=0;startArrow=ERone;startFill=0;" parent="1" target="12" edge="1">
                    <mxGeometry relative="1" as="geometry">
                        <mxPoint x="250" y="209.56994818652856" as="sourcePoint"/>
                    </mxGeometry>
                </mxCell>
                <mxCell id="20" value="rating" style="swimlane;fontStyle=0;childLayout=stackLayout;horizontal=1;startSize=30;horizontalStack=0;resizeParent=1;resizeParentMax=0;resizeLast=0;collapsible=1;marginBottom=0;whiteSpace=wrap;html=1;" parent="1" vertex="1">
                    <mxGeometry x="136" y="381" width="140" height="150" as="geometry"/>
                </mxCell>
                <mxCell id="21" value="value (1,4,5)" style="text;strokeColor=none;fillColor=none;align=left;verticalAlign=middle;spacingLeft=4;spacingRight=4;overflow=hidden;points=[[0,0.5],[1,0.5]];portConstraint=eastwest;rotatable=0;whiteSpace=wrap;html=1;" parent="20" vertex="1">
                    <mxGeometry y="30" width="140" height="30" as="geometry"/>
                </mxCell>
                <mxCell id="22" value="userId" style="text;strokeColor=none;fillColor=none;align=left;verticalAlign=middle;spacingLeft=4;spacingRight=4;overflow=hidden;points=[[0,0.5],[1,0.5]];portConstraint=eastwest;rotatable=0;whiteSpace=wrap;html=1;" parent="20" vertex="1">
                    <mxGeometry y="60" width="140" height="30" as="geometry"/>
                </mxCell>
                <mxCell id="29" value="comment" style="text;strokeColor=none;fillColor=none;align=left;verticalAlign=middle;spacingLeft=4;spacingRight=4;overflow=hidden;points=[[0,0.5],[1,0.5]];portConstraint=eastwest;rotatable=0;whiteSpace=wrap;html=1;" parent="20" vertex="1">
                    <mxGeometry y="90" width="140" height="30" as="geometry"/>
                </mxCell>
                <mxCell id="36" value="projectid" style="text;strokeColor=none;fillColor=none;align=left;verticalAlign=middle;spacingLeft=4;spacingRight=4;overflow=hidden;points=[[0,0.5],[1,0.5]];portConstraint=eastwest;rotatable=0;whiteSpace=wrap;html=1;" parent="20" vertex="1">
                    <mxGeometry y="120" width="140" height="30" as="geometry"/>
                </mxCell>
                <mxCell id="23" style="edgeStyle=none;html=1;startArrow=ERone;startFill=0;endArrow=ERoneToMany;endFill=0;exitX=0.73;exitY=0.976;exitDx=0;exitDy=0;exitPerimeter=0;" parent="1" source="25" target="20" edge="1">
                    <mxGeometry relative="1" as="geometry"/>
                </mxCell>
                <mxCell id="27" value="select * from user, rating where user.id === rating.userId" style="text;html=1;align=center;verticalAlign=middle;resizable=0;points=[];autosize=1;strokeColor=none;fillColor=none;" parent="1" vertex="1">
                    <mxGeometry x="355" y="292" width="316" height="26" as="geometry"/>
                </mxCell>
                <mxCell id="30" value="projects" style="swimlane;fontStyle=0;childLayout=stackLayout;horizontal=1;startSize=30;horizontalStack=0;resizeParent=1;resizeParentMax=0;resizeLast=0;collapsible=1;marginBottom=0;whiteSpace=wrap;html=1;" parent="1" vertex="1">
                    <mxGeometry x="350" y="381" width="140" height="120" as="geometry"/>
                </mxCell>
                <mxCell id="31" value="id" style="text;strokeColor=none;fillColor=none;align=left;verticalAlign=middle;spacingLeft=4;spacingRight=4;overflow=hidden;points=[[0,0.5],[1,0.5]];portConstraint=eastwest;rotatable=0;whiteSpace=wrap;html=1;" parent="30" vertex="1">
                    <mxGeometry y="30" width="140" height="30" as="geometry"/>
                </mxCell>
                <mxCell id="32" value="name" style="text;strokeColor=none;fillColor=none;align=left;verticalAlign=middle;spacingLeft=4;spacingRight=4;overflow=hidden;points=[[0,0.5],[1,0.5]];portConstraint=eastwest;rotatable=0;whiteSpace=wrap;html=1;" parent="30" vertex="1">
                    <mxGeometry y="60" width="140" height="30" as="geometry"/>
                </mxCell>
                <mxCell id="33" value="...." style="text;strokeColor=none;fillColor=none;align=left;verticalAlign=middle;spacingLeft=4;spacingRight=4;overflow=hidden;points=[[0,0.5],[1,0.5]];portConstraint=eastwest;rotatable=0;whiteSpace=wrap;html=1;" parent="30" vertex="1">
                    <mxGeometry y="90" width="140" height="30" as="geometry"/>
                </mxCell>
                <mxCell id="34" style="edgeStyle=none;html=1;entryX=0;entryY=0.5;entryDx=0;entryDy=0;startArrow=ERone;startFill=0;endArrow=baseDash;endFill=0;" parent="1" source="22" target="32" edge="1">
                    <mxGeometry relative="1" as="geometry"/>
                </mxCell>
                <mxCell id="37" value="1&lt;br&gt;ratingid&lt;br&gt;projectid" style="text;html=1;align=center;verticalAlign=middle;resizable=0;points=[];autosize=1;strokeColor=none;fillColor=none;" parent="1" vertex="1">
                    <mxGeometry x="13" y="329" width="57" height="55" as="geometry"/>
                </mxCell>
            </root>
        </mxGraphModel>
    </diagram>
    <diagram id="WZEeWt2pdHRHtZwkQ0eC" name="ER model">
        <mxGraphModel dx="1544" dy="1459" grid="0" gridSize="10" guides="1" tooltips="1" connect="1" arrows="1" fold="1" page="1" pageScale="1" pageWidth="850" pageHeight="1100" math="0" shadow="0">
            <root>
                <mxCell id="0"/>
                <mxCell id="1" parent="0"/>
                <mxCell id="9vIeDpf9rTeP7yxneE1x-3" style="edgeStyle=none;html=1;entryX=0;entryY=0.5;entryDx=0;entryDy=0;endArrow=none;endFill=0;" parent="1" source="9vIeDpf9rTeP7yxneE1x-1" target="9vIeDpf9rTeP7yxneE1x-2" edge="1">
                    <mxGeometry relative="1" as="geometry"/>
                </mxCell>
                <mxCell id="9vIeDpf9rTeP7yxneE1x-4" value="1" style="edgeLabel;html=1;align=center;verticalAlign=middle;resizable=0;points=[];" parent="9vIeDpf9rTeP7yxneE1x-3" vertex="1" connectable="0">
                    <mxGeometry x="0.7128" y="1" relative="1" as="geometry">
                        <mxPoint as="offset"/>
                    </mxGeometry>
                </mxCell>
                <mxCell id="9vIeDpf9rTeP7yxneE1x-5" value="n" style="edgeLabel;html=1;align=center;verticalAlign=middle;resizable=0;points=[];" parent="9vIeDpf9rTeP7yxneE1x-3" vertex="1" connectable="0">
                    <mxGeometry x="-0.8243" relative="1" as="geometry">
                        <mxPoint as="offset"/>
                    </mxGeometry>
                </mxCell>
                <mxCell id="9vIeDpf9rTeP7yxneE1x-32" value="is in" style="edgeLabel;html=1;align=center;verticalAlign=middle;resizable=0;points=[];" parent="9vIeDpf9rTeP7yxneE1x-3" vertex="1" connectable="0">
                    <mxGeometry x="-0.0939" y="1" relative="1" as="geometry">
                        <mxPoint as="offset"/>
                    </mxGeometry>
                </mxCell>
                <mxCell id="rV_p02lFPeo-Pp8lwHdC-2" value="" style="edgeStyle=none;html=1;" parent="1" source="9vIeDpf9rTeP7yxneE1x-1" target="rV_p02lFPeo-Pp8lwHdC-1" edge="1">
                    <mxGeometry relative="1" as="geometry"/>
                </mxCell>
                <mxCell id="AM-psr_tFXHzgH51WTup-2" value="" style="edgeStyle=none;html=1;" parent="1" source="9vIeDpf9rTeP7yxneE1x-1" target="AM-psr_tFXHzgH51WTup-1" edge="1">
                    <mxGeometry relative="1" as="geometry"/>
                </mxCell>
                <mxCell id="9vIeDpf9rTeP7yxneE1x-1" value="Project" style="rounded=0;whiteSpace=wrap;html=1;" parent="1" vertex="1">
                    <mxGeometry x="340" y="250" width="80" height="30" as="geometry"/>
                </mxCell>
                <mxCell id="9vIeDpf9rTeP7yxneE1x-2" value="Category" style="rounded=0;whiteSpace=wrap;html=1;" parent="1" vertex="1">
                    <mxGeometry x="520" y="250" width="80" height="30" as="geometry"/>
                </mxCell>
                <mxCell id="rV_p02lFPeo-Pp8lwHdC-31" style="edgeStyle=none;html=1;entryX=0.25;entryY=1;entryDx=0;entryDy=0;endArrow=none;endFill=0;" parent="1" source="9vIeDpf9rTeP7yxneE1x-8" target="9vIeDpf9rTeP7yxneE1x-1" edge="1">
                    <mxGeometry relative="1" as="geometry"/>
                </mxCell>
                <mxCell id="rV_p02lFPeo-Pp8lwHdC-36" value="1" style="edgeLabel;html=1;align=center;verticalAlign=middle;resizable=0;points=[];" parent="rV_p02lFPeo-Pp8lwHdC-31" vertex="1" connectable="0">
                    <mxGeometry x="-0.833" y="2" relative="1" as="geometry">
                        <mxPoint as="offset"/>
                    </mxGeometry>
                </mxCell>
                <mxCell id="rV_p02lFPeo-Pp8lwHdC-37" value="n" style="edgeLabel;html=1;align=center;verticalAlign=middle;resizable=0;points=[];" parent="rV_p02lFPeo-Pp8lwHdC-31" vertex="1" connectable="0">
                    <mxGeometry x="0.6906" y="1" relative="1" as="geometry">
                        <mxPoint y="-1" as="offset"/>
                    </mxGeometry>
                </mxCell>
                <mxCell id="9vIeDpf9rTeP7yxneE1x-8" value="Freelancer" style="rounded=0;whiteSpace=wrap;html=1;" parent="1" vertex="1">
                    <mxGeometry x="65" y="320" width="80" height="30" as="geometry"/>
                </mxCell>
                <mxCell id="9vIeDpf9rTeP7yxneE1x-27" style="edgeStyle=none;html=1;exitX=0.25;exitY=1;exitDx=0;exitDy=0;entryX=0.84;entryY=0.953;entryDx=0;entryDy=0;entryPerimeter=0;endArrow=none;endFill=0;" parent="1" source="9vIeDpf9rTeP7yxneE1x-2" target="9vIeDpf9rTeP7yxneE1x-2" edge="1">
                    <mxGeometry relative="1" as="geometry"/>
                </mxCell>
                <mxCell id="rV_p02lFPeo-Pp8lwHdC-1" value="freelance_id" style="ellipse;whiteSpace=wrap;html=1;rounded=0;" parent="1" vertex="1">
                    <mxGeometry x="355" y="310" width="70" height="40" as="geometry"/>
                </mxCell>
                <mxCell id="rV_p02lFPeo-Pp8lwHdC-8" value="" style="group" parent="1" vertex="1" connectable="0">
                    <mxGeometry x="200" y="80" width="130" height="45" as="geometry"/>
                </mxCell>
                <mxCell id="9vIeDpf9rTeP7yxneE1x-7" value="User" style="rounded=0;whiteSpace=wrap;html=1;" parent="rV_p02lFPeo-Pp8lwHdC-8" vertex="1">
                    <mxGeometry x="25" y="25" width="70" height="20" as="geometry"/>
                </mxCell>
                <mxCell id="rV_p02lFPeo-Pp8lwHdC-6" value="Business / customer" style="text;html=1;align=center;verticalAlign=middle;resizable=0;points=[];autosize=1;strokeColor=none;fillColor=none;" parent="rV_p02lFPeo-Pp8lwHdC-8" vertex="1">
                    <mxGeometry width="130" height="30" as="geometry"/>
                </mxCell>
                <mxCell id="rV_p02lFPeo-Pp8lwHdC-22" style="edgeStyle=none;html=1;entryX=0.5;entryY=0;entryDx=0;entryDy=0;endArrow=none;endFill=0;" parent="1" source="rV_p02lFPeo-Pp8lwHdC-21" target="9vIeDpf9rTeP7yxneE1x-8" edge="1">
                    <mxGeometry relative="1" as="geometry"/>
                </mxCell>
                <mxCell id="rV_p02lFPeo-Pp8lwHdC-38" value="n" style="edgeLabel;html=1;align=center;verticalAlign=middle;resizable=0;points=[];" parent="rV_p02lFPeo-Pp8lwHdC-22" vertex="1" connectable="0">
                    <mxGeometry x="-0.7776" y="3" relative="1" as="geometry">
                        <mxPoint as="offset"/>
                    </mxGeometry>
                </mxCell>
                <mxCell id="rV_p02lFPeo-Pp8lwHdC-39" value="1" style="edgeLabel;html=1;align=center;verticalAlign=middle;resizable=0;points=[];" parent="rV_p02lFPeo-Pp8lwHdC-22" vertex="1" connectable="0">
                    <mxGeometry x="0.745" y="2" relative="1" as="geometry">
                        <mxPoint as="offset"/>
                    </mxGeometry>
                </mxCell>
                <mxCell id="rV_p02lFPeo-Pp8lwHdC-23" style="edgeStyle=none;html=1;entryX=0;entryY=0.5;entryDx=0;entryDy=0;endArrow=none;endFill=0;" parent="1" source="rV_p02lFPeo-Pp8lwHdC-21" target="9vIeDpf9rTeP7yxneE1x-7" edge="1">
                    <mxGeometry relative="1" as="geometry"/>
                </mxCell>
                <mxCell id="rV_p02lFPeo-Pp8lwHdC-40" value="n" style="edgeLabel;html=1;align=center;verticalAlign=middle;resizable=0;points=[];" parent="rV_p02lFPeo-Pp8lwHdC-23" vertex="1" connectable="0">
                    <mxGeometry x="-0.7277" y="2" relative="1" as="geometry">
                        <mxPoint as="offset"/>
                    </mxGeometry>
                </mxCell>
                <mxCell id="rV_p02lFPeo-Pp8lwHdC-41" value="1" style="edgeLabel;html=1;align=center;verticalAlign=middle;resizable=0;points=[];" parent="rV_p02lFPeo-Pp8lwHdC-23" vertex="1" connectable="0">
                    <mxGeometry x="0.7408" y="-3" relative="1" as="geometry">
                        <mxPoint x="-1" as="offset"/>
                    </mxGeometry>
                </mxCell>
                <mxCell id="rV_p02lFPeo-Pp8lwHdC-24" style="edgeStyle=none;html=1;entryX=0;entryY=0.5;entryDx=0;entryDy=0;endArrow=none;endFill=0;" parent="1" source="rV_p02lFPeo-Pp8lwHdC-21" target="9vIeDpf9rTeP7yxneE1x-1" edge="1">
                    <mxGeometry relative="1" as="geometry"/>
                </mxCell>
                <mxCell id="rV_p02lFPeo-Pp8lwHdC-32" value="1" style="edgeLabel;html=1;align=center;verticalAlign=middle;resizable=0;points=[];" parent="rV_p02lFPeo-Pp8lwHdC-24" vertex="1" connectable="0">
                    <mxGeometry x="-0.8288" y="-2" relative="1" as="geometry">
                        <mxPoint as="offset"/>
                    </mxGeometry>
                </mxCell>
                <mxCell id="rV_p02lFPeo-Pp8lwHdC-33" value="1" style="edgeLabel;html=1;align=center;verticalAlign=middle;resizable=0;points=[];" parent="rV_p02lFPeo-Pp8lwHdC-24" vertex="1" connectable="0">
                    <mxGeometry x="0.8163" y="4" relative="1" as="geometry">
                        <mxPoint as="offset"/>
                    </mxGeometry>
                </mxCell>
                <mxCell id="AM-psr_tFXHzgH51WTup-4" value="" style="edgeStyle=none;html=1;" parent="1" source="rV_p02lFPeo-Pp8lwHdC-21" target="AM-psr_tFXHzgH51WTup-3" edge="1">
                    <mxGeometry relative="1" as="geometry"/>
                </mxCell>
                <mxCell id="AM-psr_tFXHzgH51WTup-5" value="" style="edgeStyle=none;html=1;" parent="1" source="rV_p02lFPeo-Pp8lwHdC-21" target="9vIeDpf9rTeP7yxneE1x-8" edge="1">
                    <mxGeometry relative="1" as="geometry"/>
                </mxCell>
                <mxCell id="rV_p02lFPeo-Pp8lwHdC-21" value="contract" style="rounded=0;whiteSpace=wrap;html=1;" parent="1" vertex="1">
                    <mxGeometry x="50" y="180" width="80" height="30" as="geometry"/>
                </mxCell>
                <mxCell id="rV_p02lFPeo-Pp8lwHdC-30" style="edgeStyle=none;html=1;entryX=0.5;entryY=0;entryDx=0;entryDy=0;endArrow=none;endFill=0;" parent="1" source="9vIeDpf9rTeP7yxneE1x-7" target="9vIeDpf9rTeP7yxneE1x-1" edge="1">
                    <mxGeometry relative="1" as="geometry"/>
                </mxCell>
                <mxCell id="rV_p02lFPeo-Pp8lwHdC-34" value="1" style="edgeLabel;html=1;align=center;verticalAlign=middle;resizable=0;points=[];" parent="rV_p02lFPeo-Pp8lwHdC-30" vertex="1" connectable="0">
                    <mxGeometry x="-0.7805" relative="1" as="geometry">
                        <mxPoint y="1" as="offset"/>
                    </mxGeometry>
                </mxCell>
                <mxCell id="rV_p02lFPeo-Pp8lwHdC-35" value="n" style="edgeLabel;html=1;align=center;verticalAlign=middle;resizable=0;points=[];" parent="rV_p02lFPeo-Pp8lwHdC-30" vertex="1" connectable="0">
                    <mxGeometry x="0.6704" y="1" relative="1" as="geometry">
                        <mxPoint as="offset"/>
                    </mxGeometry>
                </mxCell>
                <mxCell id="rV_p02lFPeo-Pp8lwHdC-42" value="&lt;h1&gt;Script&lt;/h1&gt;&lt;p&gt;-- Create Freelancer table&lt;/p&gt;&lt;p&gt;CREATE TABLE Freelancer (&lt;/p&gt;&lt;p&gt;&amp;nbsp; &amp;nbsp; FreelancerID INT PRIMARY KEY,&lt;/p&gt;&lt;p&gt;&amp;nbsp; &amp;nbsp; Name VARCHAR(255),&lt;/p&gt;&lt;p&gt;&amp;nbsp; &amp;nbsp; ContactInfo VARCHAR(255)&lt;/p&gt;&lt;p&gt;);&lt;/p&gt;&lt;p&gt;&lt;br&gt;&lt;/p&gt;&lt;p&gt;-- Create Customer table&lt;/p&gt;&lt;p&gt;CREATE TABLE Customer (&lt;/p&gt;&lt;p&gt;&amp;nbsp; &amp;nbsp; CustomerID INT PRIMARY KEY,&lt;/p&gt;&lt;p&gt;&amp;nbsp; &amp;nbsp; Name VARCHAR(255),&lt;/p&gt;&lt;p&gt;&amp;nbsp; &amp;nbsp; ContactInfo VARCHAR(255)&lt;/p&gt;&lt;p&gt;);&lt;/p&gt;&lt;p&gt;&lt;br&gt;&lt;/p&gt;&lt;p&gt;-- Create Project table&lt;/p&gt;&lt;p&gt;CREATE TABLE Project (&lt;/p&gt;&lt;p&gt;&amp;nbsp; &amp;nbsp; ProjectID INT PRIMARY KEY,&lt;/p&gt;&lt;p&gt;&amp;nbsp; &amp;nbsp; Title VARCHAR(255),&lt;/p&gt;&lt;p&gt;&amp;nbsp; &amp;nbsp; Description TEXT,&lt;/p&gt;&lt;p&gt;&amp;nbsp; &amp;nbsp; Deadline DATE,&lt;/p&gt;&lt;p&gt;&amp;nbsp; &amp;nbsp; Status VARCHAR(50),&lt;/p&gt;&lt;p&gt;&amp;nbsp; &amp;nbsp; CustomerID INT,&lt;/p&gt;&lt;p&gt;&amp;nbsp; &amp;nbsp; FreelancerID INT,&lt;/p&gt;&lt;p&gt;&amp;nbsp; &amp;nbsp; FOREIGN KEY (CustomerID) REFERENCES Customer(CustomerID),&lt;/p&gt;&lt;p&gt;&amp;nbsp; &amp;nbsp; FOREIGN KEY (FreelancerID) REFERENCES Freelancer(FreelancerID)&lt;/p&gt;&lt;p&gt;);&lt;/p&gt;&lt;p&gt;&lt;br&gt;&lt;/p&gt;&lt;p&gt;-- Create Contract table&lt;/p&gt;&lt;p&gt;CREATE TABLE Contract (&lt;/p&gt;&lt;p&gt;&amp;nbsp; &amp;nbsp; ContractID INT PRIMARY KEY,&lt;/p&gt;&lt;p&gt;&amp;nbsp; &amp;nbsp; CustomerID INT,&lt;/p&gt;&lt;p&gt;&amp;nbsp; &amp;nbsp; FreelancerID INT,&lt;/p&gt;&lt;p&gt;&amp;nbsp; &amp;nbsp; ProjectID INT,&lt;/p&gt;&lt;p&gt;&amp;nbsp; &amp;nbsp; StartDate DATE,&lt;/p&gt;&lt;p&gt;&amp;nbsp; &amp;nbsp; EndDate DATE,&lt;/p&gt;&lt;p&gt;&amp;nbsp; &amp;nbsp; PaymentTerms VARCHAR(255),&lt;/p&gt;&lt;p&gt;&amp;nbsp; &amp;nbsp; ContractStatus VARCHAR(50),&lt;/p&gt;&lt;p&gt;&amp;nbsp; &amp;nbsp; FOREIGN KEY (CustomerID) REFERENCES Customer(CustomerID),&lt;/p&gt;&lt;p&gt;&amp;nbsp; &amp;nbsp; FOREIGN KEY (FreelancerID) REFERENCES Freelancer(FreelancerID),&lt;/p&gt;&lt;p&gt;&amp;nbsp; &amp;nbsp; FOREIGN KEY (ProjectID) REFERENCES Project(ProjectID)&lt;/p&gt;&lt;p&gt;);&lt;/p&gt;&lt;div&gt;&lt;br&gt;&lt;/div&gt;" style="text;html=1;strokeColor=default;fillColor=none;spacing=20;spacingTop=-20;whiteSpace=wrap;overflow=hidden;rounded=0;" parent="1" vertex="1">
                    <mxGeometry x="725" y="-98" width="454" height="1150" as="geometry"/>
                </mxCell>
                <mxCell id="AM-psr_tFXHzgH51WTup-1" value="user_id" style="ellipse;whiteSpace=wrap;html=1;rounded=0;" parent="1" vertex="1">
                    <mxGeometry x="388" y="192" width="80" height="33" as="geometry"/>
                </mxCell>
                <mxCell id="AM-psr_tFXHzgH51WTup-3" value="project_id&lt;br&gt;user_id&lt;br&gt;freelancer_id" style="ellipse;whiteSpace=wrap;html=1;rounded=0;" parent="1" vertex="1">
                    <mxGeometry x="31" y="72" width="80" height="65.5" as="geometry"/>
                </mxCell>
                <mxCell id="AM-psr_tFXHzgH51WTup-6" value="messsage" style="whiteSpace=wrap;html=1;" parent="1" vertex="1">
                    <mxGeometry x="-64" y="-7" width="120" height="36" as="geometry"/>
                </mxCell>
            </root>
        </mxGraphModel>
    </diagram>
    <diagram id="-GnJKgeDK94SulhiY7lt" name="Page-4">
        <mxGraphModel dx="382" dy="200" grid="1" gridSize="10" guides="1" tooltips="1" connect="1" arrows="1" fold="1" page="1" pageScale="1" pageWidth="850" pageHeight="1100" math="0" shadow="0">
            <root>
                <mxCell id="0"/>
                <mxCell id="1" parent="0"/>
                <mxCell id="TGy_AiKVaVnCgz2TknKU-11" value="" style="edgeStyle=none;html=1;" edge="1" parent="1" source="TGy_AiKVaVnCgz2TknKU-1" target="TGy_AiKVaVnCgz2TknKU-7">
                    <mxGeometry relative="1" as="geometry"/>
                </mxCell>
                <mxCell id="TGy_AiKVaVnCgz2TknKU-13" value="n" style="edgeLabel;html=1;align=center;verticalAlign=middle;resizable=0;points=[];" vertex="1" connectable="0" parent="TGy_AiKVaVnCgz2TknKU-11">
                    <mxGeometry x="0.7702" y="-1" relative="1" as="geometry">
                        <mxPoint as="offset"/>
                    </mxGeometry>
                </mxCell>
                <mxCell id="TGy_AiKVaVnCgz2TknKU-14" value="1" style="edgeLabel;html=1;align=center;verticalAlign=middle;resizable=0;points=[];" vertex="1" connectable="0" parent="TGy_AiKVaVnCgz2TknKU-11">
                    <mxGeometry x="-0.8625" relative="1" as="geometry">
                        <mxPoint as="offset"/>
                    </mxGeometry>
                </mxCell>
                <mxCell id="TGy_AiKVaVnCgz2TknKU-1" value="Project" style="swimlane;fontStyle=0;childLayout=stackLayout;horizontal=1;startSize=26;horizontalStack=0;resizeParent=1;resizeParentMax=0;resizeLast=0;collapsible=1;marginBottom=0;align=center;fontSize=14;" vertex="1" parent="1">
                    <mxGeometry x="90" y="200" width="160" height="116" as="geometry"/>
                </mxCell>
                <mxCell id="TGy_AiKVaVnCgz2TknKU-2" value="Item 1" style="text;strokeColor=none;fillColor=none;spacingLeft=4;spacingRight=4;overflow=hidden;rotatable=0;points=[[0,0.5],[1,0.5]];portConstraint=eastwest;fontSize=12;" vertex="1" parent="TGy_AiKVaVnCgz2TknKU-1">
                    <mxGeometry y="26" width="160" height="30" as="geometry"/>
                </mxCell>
                <mxCell id="TGy_AiKVaVnCgz2TknKU-3" value="Item 2" style="text;strokeColor=none;fillColor=none;spacingLeft=4;spacingRight=4;overflow=hidden;rotatable=0;points=[[0,0.5],[1,0.5]];portConstraint=eastwest;fontSize=12;" vertex="1" parent="TGy_AiKVaVnCgz2TknKU-1">
                    <mxGeometry y="56" width="160" height="30" as="geometry"/>
                </mxCell>
                <mxCell id="TGy_AiKVaVnCgz2TknKU-4" value="Item 3" style="text;strokeColor=none;fillColor=none;spacingLeft=4;spacingRight=4;overflow=hidden;rotatable=0;points=[[0,0.5],[1,0.5]];portConstraint=eastwest;fontSize=12;" vertex="1" parent="TGy_AiKVaVnCgz2TknKU-1">
                    <mxGeometry y="86" width="160" height="30" as="geometry"/>
                </mxCell>
                <mxCell id="TGy_AiKVaVnCgz2TknKU-7" value="Pakage" style="swimlane;fontStyle=0;childLayout=stackLayout;horizontal=1;startSize=26;horizontalStack=0;resizeParent=1;resizeParentMax=0;resizeLast=0;collapsible=1;marginBottom=0;align=center;fontSize=14;" vertex="1" parent="1">
                    <mxGeometry x="400" y="210" width="160" height="146" as="geometry"/>
                </mxCell>
                <mxCell id="TGy_AiKVaVnCgz2TknKU-8" value="title" style="text;strokeColor=none;fillColor=none;spacingLeft=4;spacingRight=4;overflow=hidden;rotatable=0;points=[[0,0.5],[1,0.5]];portConstraint=eastwest;fontSize=12;" vertex="1" parent="TGy_AiKVaVnCgz2TknKU-7">
                    <mxGeometry y="26" width="160" height="30" as="geometry"/>
                </mxCell>
                <mxCell id="TGy_AiKVaVnCgz2TknKU-12" value="desc" style="text;strokeColor=none;fillColor=none;spacingLeft=4;spacingRight=4;overflow=hidden;rotatable=0;points=[[0,0.5],[1,0.5]];portConstraint=eastwest;fontSize=12;" vertex="1" parent="TGy_AiKVaVnCgz2TknKU-7">
                    <mxGeometry y="56" width="160" height="30" as="geometry"/>
                </mxCell>
                <mxCell id="TGy_AiKVaVnCgz2TknKU-9" value="price" style="text;strokeColor=none;fillColor=none;spacingLeft=4;spacingRight=4;overflow=hidden;rotatable=0;points=[[0,0.5],[1,0.5]];portConstraint=eastwest;fontSize=12;" vertex="1" parent="TGy_AiKVaVnCgz2TknKU-7">
                    <mxGeometry y="86" width="160" height="30" as="geometry"/>
                </mxCell>
                <mxCell id="TGy_AiKVaVnCgz2TknKU-10" value="fixLimit" style="text;strokeColor=none;fillColor=none;spacingLeft=4;spacingRight=4;overflow=hidden;rotatable=0;points=[[0,0.5],[1,0.5]];portConstraint=eastwest;fontSize=12;" vertex="1" parent="TGy_AiKVaVnCgz2TknKU-7">
                    <mxGeometry y="116" width="160" height="30" as="geometry"/>
                </mxCell>
            </root>
        </mxGraphModel>
    </diagram>
</mxfile>